<?xml version="1.0" encoding="UTF-8" standalone="no"?><!DOCTYPE svg PUBLIC "-//W3C//DTD SVG 1.1//EN" "http://www.w3.org/Graphics/SVG/1.1/DTD/svg11.dtd"><svg width="100%" height="100%" viewBox="300 355 1780 1095" version="1.1" xmlns="http://www.w3.org/2000/svg" xmlns:xlink="http://www.w3.org/1999/xlink" xml:space="preserve" xmlns:serif="http://www.serif.com/" style="fill-rule:evenodd;clip-rule:evenodd;stroke-linejoin:round;stroke-miterlimit:2;"><path d="M1832.271,382.559l225.188,171.442c8.653,6.588 12.139,17.963 8.663,28.268c-3.476,10.305 -13.14,17.244 -24.016,17.244l-123.183,-0l0,166.141c-31.298,28.587 -59.551,58.911 -78.143,77.183c-30.391,29.806 -61.681,58.7 -93.788,86.639c-39.967,34.234 -77.973,62.992 -115.1,86.469c20.368,-27.346 29.75,-59.525 22.507,-95.972c-4.316,-21.731 -17.128,-40.815 -35.67,-52.987c-13.338,-8.776 -40.006,-14.892 -73.67,-15.716c-56.669,-1.387 -138.901,8.049 -178.942,4.503c-84.359,-7.47 -170.52,-36.159 -256.202,-59.066c-57.577,-15.393 -114.961,-28.16 -171.485,-31.974l0,-165.22l-119.936,-0c-11.346,0 -21.427,-7.238 -25.054,-17.989c-3.627,-10.751 0.01,-22.617 9.037,-29.489l606.95,-462.087c11.372,-8.658 27.126,-8.658 38.498,0l233.262,177.589l0,-67.99l151.082,0l0,183.013Zm-419.519,55.099l-107.701,0l0,107.701l107.701,0l0,-107.701Zm141.703,141.001l-107.701,0l0,107.701l107.701,0l0,-107.701Zm0,-141.001l-107.701,0l0,107.701l107.701,0l0,-107.701Zm-141.703,141.001l-107.701,0l0,107.701l107.701,0l0,-107.701Zm506.171,237.908l0,223.998l-256.652,-0c35.265,-23.086 71.35,-50.659 109.025,-82.937c32.708,-28.458 64.583,-57.892 95.542,-88.254c13.185,-12.957 31.392,-32.408 52.085,-52.807Zm-374.01,223.998l-606.482,-0l0,-238.668c139.469,9.978 284.457,78.531 424.406,90.923c57.958,5.133 203.167,-16.183 235.458,5.242c10.208,6.692 17.25,17.2 19.625,29.158c9.924,49.938 -26.473,87.472 -73.008,113.345Z" style="fill:#bd8b34;"/><path d="M1107.839,1080.752c272.583,94.258 440.042,68.283 663.458,-123.125c32.708,-28.458 64.583,-57.892 95.542,-88.254c44.917,-44.142 148.125,-163.646 209.333,-139.279c97.875,52.121 -43.25,223.938 -76.583,273.446c-123.458,183.333 -241.417,319.796 -443.667,412.125c-328.5,149.958 -602.167,-5.875 -885.792,-166.092c-48.292,-27.283 -109.208,-53.281 -159.208,-70.004c-45.529,-15.228 -91.458,-22.283 -140.792,-30.338c74.417,-170.033 259.552,-306.12 471.042,-343.179c168.317,-29.494 348.833,71.463 521.667,86.767c57.958,5.133 203.167,-16.183 235.458,5.242c10.208,6.692 17.25,17.2 19.625,29.158c18.333,92.254 -121.417,142.175 -191.125,154.45c-110.667,19.475 -210.417,-3.933 -318.958,-0.917Z" style="fill:#0d2446;fill-rule:nonzero;"/></svg>